<svg width="218" height="216" viewBox="0 0 218 216" fill="none" xmlns="http://www.w3.org/2000/svg">
<path d="M51.19 11.2772H78.914V205.314H51.19V11.2772ZM84.1952 115.376V101.215L151.904 11.2772H187.211L113.07 107.584L194.94 205.314H158.341L84.1952 115.376Z" stroke="black" stroke-width="20.8207"/>
<path d="M51.1772 11.2708H78.9272V205.312H51.1772V11.2708ZM84.198 115.375V101.208L151.927 11.2708H187.198L113.073 107.604L194.969 205.312H158.323L84.198 115.375Z" fill="white"/>
<path d="M49.0338 120.121V106.772H81.7681C89.7213 106.772 96.2942 105.1 101.492 101.756C106.69 98.4126 110.575 94.1626 113.148 89.0116C115.726 83.8189 117.013 78.4387 117.013 72.8814C117.013 67.3241 115.726 61.9699 113.148 56.8189C110.575 51.6262 106.69 47.4231 101.492 44.2147C96.2942 40.9595 89.7213 39.3345 81.7681 39.3345H38.7369V205.314H11.0129V11.0064H81.7681C95.8202 11.0064 107.523 14.0116 116.878 20.022C126.232 26.0272 133.258 33.7564 137.956 43.1991C142.7 52.6418 145.07 62.5376 145.07 72.8814C145.07 81.9647 143.216 90.7303 139.513 99.1783C135.81 107.585 130.206 114.699 122.706 120.527C115.206 126.355 105.919 130.288 94.8515 132.319L156.185 205.314H119.789L49.0338 120.121Z" stroke="black" stroke-width="20.8207"/>
<path d="M49.0208 120.083V106.771H81.7708C89.7292 106.771 96.2969 105.104 101.479 101.771C106.672 98.4375 110.562 94.1823 113.146 89C115.74 83.8229 117.042 78.4531 117.042 72.8958C117.042 67.3438 115.74 61.974 113.146 56.7917C110.562 51.6146 106.672 47.4062 101.479 44.1667C96.2969 40.9323 89.7292 39.3125 81.7708 39.3125H38.75V205.312H11V11H81.7708C95.8385 11 107.547 14.0104 116.896 20.0208C126.24 26.0365 133.271 33.7656 137.979 43.2083C142.698 52.6406 145.062 62.5365 145.062 72.8958C145.062 81.9688 143.208 90.7083 139.5 99.125C135.802 107.542 130.208 114.667 122.708 120.5C115.219 126.333 105.927 130.271 94.8333 132.312L156.167 205.312H119.812L49.0208 120.083Z" fill="white"/>
</svg>
