<svg width="317" height="124" viewBox="0 0 317 124" fill="none" xmlns="http://www.w3.org/2000/svg">
<path d="M144.807 76.4375C143.39 76.4375 142.223 75.9792 141.307 75.0625C140.38 74.1354 139.911 72.9583 139.911 71.5417V67.7083C139.911 66.3073 140.38 65.1406 141.307 64.2083C142.223 63.2813 143.39 62.8125 144.807 62.8125H268.994C271.228 62.8125 272.89 62.1458 273.973 60.8125C275.057 59.4688 275.63 57.9583 275.702 56.2917C275.827 54.5729 275.312 52.974 274.161 51.5C273.02 50.0313 271.296 49.2917 268.994 49.2917H160.244V35.6875L195.827 0L205.411 9.58333L179.411 35.6875H268.994C273.588 35.6875 277.411 36.7083 280.452 38.75C283.494 40.7917 285.744 43.3958 287.202 46.5625C288.671 49.7292 289.38 53.0417 289.327 56.5C289.255 59.8229 288.452 63.0156 286.911 66.0833C285.38 69.1563 283.13 71.6458 280.161 73.5625C277.187 75.4792 273.463 76.4375 268.994 76.4375H144.807Z" fill="white"/>
<path d="M119.479 51.7917C117.438 51.7917 115.677 51.0781 114.208 49.6459C112.734 48.2031 112 46.4531 112 44.3959C112 42.3021 112.734 40.5313 114.208 39.0834C115.677 37.6406 117.438 36.9167 119.479 36.9167C121.521 36.9167 123.276 37.6406 124.75 39.0834C126.219 40.5313 126.958 42.3021 126.958 44.3959C126.958 46.4531 126.219 48.2031 124.75 49.6459C123.276 51.0781 121.521 51.7917 119.479 51.7917ZM147.396 62.8125V76.4375H146.625V83.1459C146.625 86.5313 145.875 89.7917 144.375 92.9167C142.875 96.0521 140.604 98.6146 137.563 100.604C134.521 102.589 130.729 103.583 126.188 103.583H112.667C108.135 103.583 104.354 102.589 101.313 100.604C98.2708 98.6146 96 96.0521 94.5 92.9167C93 89.7917 92.25 86.5313 92.25 83.1459V62.8125H105.875V83.1459C105.875 84.8802 106.427 86.4479 107.542 87.8542C108.667 89.2552 110.375 89.9584 112.667 89.9584H126.188C128.49 89.9584 130.198 89.2552 131.313 87.8542C132.438 86.4479 133 84.8802 133 83.1459V62.8125H147.396Z" fill="white"/>
<path d="M290.118 103.59V89.5901L295.701 89.7568C298.003 89.7568 299.711 89.0536 300.826 87.6526C301.951 86.2463 302.513 84.6786 302.513 82.9443V49.0901H316.118V82.9443C316.118 86.3297 315.368 89.5901 313.868 92.7151C312.368 95.8505 310.097 98.413 307.055 100.403C304.024 102.387 300.243 103.382 295.701 103.382L290.118 103.59Z" fill="white"/>
<path d="M179.659 115.068C179.852 115.068 179.977 115.209 180.034 115.485C180.102 115.767 180.138 116.19 180.138 116.759C180.138 117.333 180.102 117.756 180.034 118.033C179.961 118.299 179.836 118.43 179.659 118.43C179.003 118.43 178.394 118.315 177.826 118.075C177.253 117.824 176.826 117.417 176.534 116.843C175.753 117.276 174.993 117.49 174.243 117.49C173.701 117.323 173.206 116.999 172.763 116.508C172.331 116.007 172.118 115.417 172.118 114.734C172.118 114.123 172.305 113.58 172.68 113.105C173.055 112.619 173.42 112.259 173.784 112.019C174.144 111.784 174.67 111.471 175.368 111.079C175.42 110.996 175.482 110.892 175.555 110.766C175.623 110.641 175.685 110.552 175.743 110.495C176.034 110.401 176.451 110.302 176.993 110.202C177.545 110.093 177.977 110.035 178.284 110.035L178.43 110.161C178.456 111.497 178.519 112.771 178.618 113.982C178.644 114.389 178.743 114.671 178.909 114.838C179.076 114.995 179.326 115.068 179.659 115.068ZM174.201 114.149C174.451 114.264 174.743 114.316 175.076 114.316C175.201 114.316 175.441 114.295 175.805 114.253C175.763 113.909 175.727 113.554 175.701 113.188C175.368 113.329 175.076 113.476 174.826 113.627C174.586 113.768 174.378 113.94 174.201 114.149ZM179.472 107.739C179.482 107.921 179.347 108.214 179.055 108.616C178.774 109.023 178.534 109.299 178.326 109.451C178.102 109.357 177.816 109.19 177.472 108.95C177.123 108.715 176.868 108.501 176.701 108.302C176.576 108.527 176.414 108.756 176.222 108.991C176.024 109.216 175.873 109.367 175.763 109.451C175.513 109.341 175.201 109.158 174.826 108.908C174.461 108.647 174.206 108.422 174.055 108.24C174.123 107.989 174.295 107.655 174.576 107.237C174.868 106.809 175.107 106.59 175.305 106.59C175.498 106.59 175.784 106.731 176.159 107.008C176.545 107.274 176.784 107.498 176.868 107.676C177.034 107.373 177.206 107.112 177.388 106.903C177.566 106.694 177.732 106.59 177.888 106.59C178.066 106.59 178.368 106.747 178.784 107.049C179.201 107.342 179.43 107.571 179.472 107.739Z" fill="white"/>
<path d="M190.725 112.27C190.933 112.954 191.037 113.742 191.037 114.629C191.037 115.271 190.975 115.882 190.85 116.467C190.725 117.041 190.542 117.521 190.308 117.908C189.209 118.257 188.001 118.43 186.683 118.43C186.506 118.43 186.381 118.299 186.308 118.033C186.24 117.756 186.204 117.333 186.204 116.759C186.204 116.19 186.24 115.767 186.308 115.485C186.365 115.209 186.49 115.068 186.683 115.068C187.433 115.068 188.016 115.021 188.433 114.922C188.308 114.41 188.1 113.742 187.808 112.917L190.725 112.27ZM190.829 110.119C190.798 110.286 190.725 110.526 190.6 110.829C190.485 111.137 190.397 111.341 190.329 111.434C189.954 111.434 189.496 111.476 188.954 111.56C188.423 111.633 187.959 111.706 187.558 111.789C187.501 111.722 187.459 111.612 187.433 111.455C187.417 111.288 187.412 111.121 187.412 110.954C187.412 110.777 187.423 110.657 187.454 110.599C187.662 110.516 187.917 110.432 188.225 110.349C187.975 110.056 187.85 109.743 187.85 109.409C187.85 109.158 187.923 108.924 188.079 108.699C188.246 108.464 188.443 108.281 188.683 108.156C188.933 108.02 189.183 107.947 189.433 107.947C189.626 107.947 189.787 107.989 189.912 108.073C190.173 108.229 190.308 108.464 190.308 108.783C190.308 109.023 190.23 109.237 190.079 109.43C189.839 109.336 189.626 109.284 189.433 109.284C189.266 109.284 189.131 109.32 189.037 109.388C188.938 109.446 188.891 109.529 188.891 109.639C188.891 109.806 188.954 109.983 189.079 110.161C189.563 110.067 190.006 110.015 190.412 110.015L190.766 110.035L190.829 110.119Z" fill="white"/>
<path d="M195.971 115.068C196.163 115.068 196.288 115.209 196.346 115.485C196.413 115.767 196.45 116.19 196.45 116.759C196.45 117.333 196.413 117.756 196.346 118.033C196.273 118.299 196.148 118.43 195.971 118.43C195.304 118.43 194.658 118.388 194.033 118.304C193.419 118.221 192.908 118.09 192.491 117.908C192.377 117.479 192.288 115.522 192.221 112.04L192.116 108.386L195.012 108.219C195.122 110.015 195.179 111.664 195.179 113.168C195.179 113.627 195.163 114.243 195.137 115.005C195.439 115.047 195.721 115.068 195.971 115.068Z" fill="white"/>
<path d="M233.019 115.068C233.212 115.068 233.337 115.209 233.394 115.485C233.462 115.767 233.498 116.19 233.498 116.759C233.498 117.333 233.462 117.756 233.394 118.033C233.321 118.299 233.196 118.43 233.019 118.43C232.352 118.43 231.706 118.388 231.081 118.304C230.467 118.221 229.956 118.09 229.54 117.908C229.425 117.479 229.337 115.522 229.269 112.04L229.165 108.386L232.061 108.219C232.17 110.015 232.227 111.664 232.227 113.168C232.227 113.627 232.212 114.243 232.186 115.005C232.488 115.047 232.769 115.068 233.019 115.068Z" fill="white"/>
<path d="M213.008 112.27C213.216 112.954 213.32 113.742 213.32 114.629C213.32 115.271 213.258 115.882 213.133 116.467C213.008 117.041 212.825 117.521 212.591 117.908C211.492 118.257 210.284 118.43 208.966 118.43C208.789 118.43 208.664 118.299 208.591 118.033C208.523 117.756 208.487 117.333 208.487 116.759C208.487 116.19 208.523 115.767 208.591 115.485C208.648 115.209 208.773 115.068 208.966 115.068C209.716 115.068 210.299 115.021 210.716 114.922C210.591 114.41 210.383 113.742 210.091 112.917L213.008 112.27ZM211.174 111.351C210.924 111.257 210.591 111.069 210.174 110.787C209.768 110.495 209.492 110.244 209.341 110.035C209.367 109.884 209.456 109.675 209.612 109.409C209.763 109.132 209.929 108.882 210.112 108.657C210.304 108.438 210.476 108.318 210.633 108.302C210.758 108.276 210.95 108.339 211.216 108.49C211.492 108.631 211.747 108.803 211.987 109.012C212.221 109.221 212.351 109.383 212.383 109.493C212.424 109.675 212.284 109.994 211.966 110.453C211.643 110.902 211.383 111.2 211.174 111.351Z" fill="white"/>
<path d="M255.802 115.068C255.995 115.068 256.12 115.209 256.177 115.485C256.245 115.767 256.281 116.19 256.281 116.759C256.281 117.333 256.245 117.756 256.177 118.033C256.104 118.299 255.979 118.43 255.802 118.43C255.302 118.43 254.813 118.336 254.344 118.137C253.885 117.944 253.521 117.626 253.26 117.177H253.115C252.792 117.636 252.375 117.965 251.865 118.158C251.365 118.341 250.781 118.43 250.115 118.43C249.938 118.43 249.813 118.299 249.74 118.033C249.672 117.756 249.635 117.333 249.635 116.759C249.635 116.19 249.672 115.767 249.74 115.485C249.797 115.209 249.922 115.068 250.115 115.068C250.781 115.068 251.344 114.922 251.802 114.629C252.271 114.326 252.594 113.836 252.76 113.168L254.281 113.397C254.281 113.496 254.281 113.637 254.281 113.815C254.281 114.316 254.391 114.65 254.615 114.817C254.833 114.984 255.229 115.068 255.802 115.068ZM253.073 111.915C252.823 111.821 252.49 111.633 252.073 111.351C251.667 111.059 251.391 110.808 251.24 110.599C251.266 110.448 251.354 110.239 251.51 109.973C251.662 109.696 251.828 109.446 252.01 109.221C252.203 109.002 252.375 108.882 252.531 108.866C252.656 108.84 252.849 108.903 253.115 109.054C253.391 109.195 253.646 109.367 253.885 109.576C254.12 109.785 254.25 109.947 254.281 110.056C254.323 110.239 254.182 110.557 253.865 111.017C253.542 111.466 253.281 111.763 253.073 111.915Z" fill="white"/>
<path d="M250.124 115.068C250.317 115.068 250.442 115.209 250.499 115.485C250.567 115.767 250.604 116.19 250.604 116.759C250.604 117.333 250.567 117.756 250.499 118.033C250.426 118.299 250.301 118.43 250.124 118.43C249.583 118.43 249.051 118.32 248.541 118.095C248.041 117.876 247.635 117.568 247.333 117.177H247.166C246.551 117.678 245.9 118.012 245.208 118.179C244.525 118.346 243.817 118.43 243.083 118.43C242.906 118.43 242.781 118.299 242.708 118.033C242.64 117.756 242.604 117.333 242.604 116.759C242.604 116.19 242.64 115.767 242.708 115.485C242.765 115.209 242.89 115.068 243.083 115.068C244.01 115.068 244.781 114.937 245.395 114.671C246.02 114.394 246.499 113.893 246.833 113.168L248.333 113.397C248.317 113.496 248.312 113.627 248.312 113.794C248.312 114.295 248.442 114.64 248.708 114.817C248.968 114.984 249.442 115.068 250.124 115.068ZM249.541 110.182C249.551 110.364 249.416 110.657 249.124 111.059C248.843 111.466 248.604 111.742 248.395 111.894C248.171 111.8 247.885 111.633 247.541 111.393C247.192 111.158 246.937 110.944 246.77 110.745C246.645 110.97 246.484 111.2 246.291 111.434C246.093 111.659 245.942 111.81 245.833 111.894C245.583 111.784 245.27 111.601 244.895 111.351C244.531 111.09 244.275 110.865 244.124 110.683C244.192 110.432 244.364 110.098 244.645 109.68C244.937 109.252 245.176 109.033 245.374 109.033C245.567 109.033 245.854 109.174 246.229 109.451C246.614 109.717 246.854 109.941 246.937 110.119C247.104 109.816 247.275 109.555 247.458 109.346C247.635 109.138 247.801 109.033 247.958 109.033C248.135 109.033 248.437 109.19 248.854 109.493C249.27 109.785 249.499 110.015 249.541 110.182Z" fill="white"/>
<path d="M290.104 115.068C290.297 115.068 290.422 115.209 290.479 115.485C290.547 115.767 290.583 116.19 290.583 116.759C290.583 117.333 290.547 117.756 290.479 118.033C290.406 118.299 290.281 118.43 290.104 118.43C289.562 118.43 289.031 118.32 288.521 118.095C288.021 117.876 287.615 117.568 287.312 117.177H287.146C286.531 117.678 285.88 118.012 285.187 118.179C284.505 118.346 283.797 118.43 283.062 118.43C282.885 118.43 282.76 118.299 282.687 118.033C282.62 117.756 282.583 117.333 282.583 116.759C282.583 116.19 282.62 115.767 282.687 115.485C282.745 115.209 282.87 115.068 283.062 115.068C283.99 115.068 284.76 114.937 285.375 114.671C286 114.394 286.479 113.893 286.812 113.168L288.312 113.397C288.297 113.496 288.292 113.627 288.292 113.794C288.292 114.295 288.422 114.64 288.687 114.817C288.948 114.984 289.422 115.068 290.104 115.068ZM289.521 110.182C289.531 110.364 289.396 110.657 289.104 111.059C288.823 111.466 288.583 111.742 288.375 111.894C288.151 111.8 287.865 111.633 287.521 111.393C287.172 111.158 286.917 110.944 286.75 110.745C286.625 110.97 286.464 111.2 286.271 111.434C286.073 111.659 285.922 111.81 285.812 111.894C285.562 111.784 285.25 111.601 284.875 111.351C284.51 111.09 284.255 110.865 284.104 110.683C284.172 110.432 284.344 110.098 284.625 109.68C284.917 109.252 285.156 109.033 285.354 109.033C285.547 109.033 285.833 109.174 286.208 109.451C286.594 109.717 286.833 109.941 286.917 110.119C287.083 109.816 287.255 109.555 287.437 109.346C287.615 109.138 287.781 109.033 287.937 109.033C288.115 109.033 288.417 109.19 288.833 109.493C289.25 109.785 289.479 110.015 289.521 110.182Z" fill="white"/>
<path d="M243.095 115.068C243.287 115.068 243.412 115.209 243.47 115.485C243.537 115.767 243.574 116.19 243.574 116.759C243.574 117.333 243.537 117.756 243.47 118.033C243.397 118.299 243.272 118.43 243.095 118.43C242.412 118.43 241.772 118.294 241.178 118.012C240.595 117.72 240.157 117.312 239.865 116.78C239.225 116.811 238.558 116.947 237.865 117.198C237.543 117.323 237.246 117.443 236.97 117.553C236.23 117.834 235.574 118.048 234.99 118.2C234.418 118.356 233.761 118.43 233.011 118.43C232.834 118.43 232.709 118.299 232.636 118.033C232.569 117.756 232.532 117.333 232.532 116.759C232.532 116.19 232.569 115.767 232.636 115.485C232.694 115.209 232.819 115.068 233.011 115.068C233.662 115.068 234.22 115.026 234.678 114.942C235.136 114.859 235.746 114.728 236.511 114.546L236.949 114.441L238.074 114.191C237.615 113.94 237.225 113.752 236.907 113.627C236.574 113.502 236.209 113.413 235.824 113.355C235.449 113.303 234.954 113.251 234.345 113.209L233.949 113.188L233.865 113.126C233.918 112.666 234.017 112.16 234.157 111.601C234.293 111.048 234.428 110.636 234.553 110.37C234.803 110.328 235.037 110.307 235.261 110.307C235.704 110.307 236.115 110.38 236.49 110.516C236.876 110.657 237.272 110.85 237.678 111.1L238.303 111.518C239.313 112.176 240.079 112.656 240.595 112.959C241.105 113.267 241.47 113.418 241.678 113.418C241.647 114.018 241.595 114.525 241.511 114.942C241.954 115.026 242.48 115.068 243.095 115.068ZM237.845 122.209C237.595 122.11 237.261 121.917 236.845 121.624C236.438 121.342 236.162 121.107 236.011 120.914C236.037 120.747 236.126 120.523 236.282 120.246C236.433 119.98 236.6 119.735 236.782 119.515C236.975 119.291 237.147 119.171 237.303 119.16C237.428 119.129 237.621 119.186 237.886 119.327C238.162 119.479 238.418 119.662 238.657 119.87C238.892 120.079 239.022 120.246 239.053 120.371C239.095 120.549 238.954 120.862 238.636 121.311C238.313 121.755 238.053 122.052 237.845 122.209Z" fill="white"/>
<path d="M283.074 115.068C283.267 115.068 283.392 115.209 283.449 115.485C283.517 115.767 283.554 116.19 283.554 116.759C283.554 117.333 283.517 117.756 283.449 118.033C283.376 118.299 283.251 118.43 283.074 118.43C282.392 118.43 281.751 118.294 281.158 118.012C280.574 117.72 280.137 117.312 279.845 116.78C279.205 116.811 278.538 116.947 277.845 117.198C277.522 117.323 277.225 117.443 276.949 117.553C276.21 117.834 275.554 118.048 274.97 118.2C274.397 118.356 273.741 118.43 272.991 118.43C272.814 118.43 272.689 118.299 272.616 118.033C272.548 117.756 272.512 117.333 272.512 116.759C272.512 116.19 272.548 115.767 272.616 115.485C272.673 115.209 272.798 115.068 272.991 115.068C273.642 115.068 274.199 115.026 274.658 114.942C275.116 114.859 275.725 114.728 276.491 114.546L276.929 114.441L278.054 114.191C277.595 113.94 277.205 113.752 276.887 113.627C276.554 113.502 276.189 113.413 275.804 113.355C275.429 113.303 274.934 113.251 274.324 113.209L273.929 113.188L273.845 113.126C273.897 112.666 273.996 112.16 274.137 111.601C274.272 111.048 274.408 110.636 274.533 110.37C274.783 110.328 275.017 110.307 275.241 110.307C275.684 110.307 276.095 110.38 276.47 110.516C276.856 110.657 277.251 110.85 277.658 111.1L278.283 111.518C279.293 112.176 280.059 112.656 280.574 112.959C281.085 113.267 281.449 113.418 281.658 113.418C281.626 114.018 281.574 114.525 281.491 114.942C281.934 115.026 282.46 115.068 283.074 115.068ZM277.824 122.209C277.574 122.11 277.241 121.917 276.824 121.624C276.418 121.342 276.142 121.107 275.991 120.914C276.017 120.747 276.106 120.523 276.262 120.246C276.413 119.98 276.58 119.735 276.762 119.515C276.955 119.291 277.126 119.171 277.283 119.16C277.408 119.129 277.6 119.186 277.866 119.327C278.142 119.479 278.397 119.662 278.637 119.87C278.871 120.079 279.001 120.246 279.033 120.371C279.074 120.549 278.934 120.862 278.616 121.311C278.293 121.755 278.033 122.052 277.824 122.209Z" fill="white"/>
<path d="M227.764 112.353C227.983 113.121 228.097 113.93 228.097 114.775C228.097 116.044 227.847 117.109 227.347 117.97C226.847 118.137 226.165 118.278 225.305 118.388C224.456 118.482 223.524 118.534 222.514 118.534C220.608 118.534 218.805 118.346 217.097 117.97C217.222 116.817 217.462 115.725 217.826 114.692C219.727 115 221.618 115.151 223.493 115.151C224.186 115.151 224.852 115.12 225.493 115.047C225.378 114.603 225.253 114.18 225.118 113.773C224.993 113.371 224.91 113.121 224.868 113.021L227.764 112.353ZM224.326 112.103C224.337 112.285 224.201 112.578 223.91 112.98C223.628 113.387 223.389 113.664 223.18 113.815C222.956 113.721 222.67 113.554 222.326 113.314C221.977 113.079 221.722 112.865 221.555 112.666C221.43 112.891 221.269 113.121 221.076 113.356C220.878 113.58 220.727 113.731 220.618 113.815C220.368 113.705 220.055 113.523 219.68 113.272C219.316 113.011 219.061 112.787 218.91 112.604C218.977 112.353 219.149 112.019 219.43 111.602C219.722 111.173 219.962 110.954 220.16 110.954C220.352 110.954 220.639 111.095 221.014 111.372C221.399 111.638 221.639 111.863 221.722 112.04C221.889 111.737 222.061 111.476 222.243 111.267C222.42 111.059 222.587 110.954 222.743 110.954C222.92 110.954 223.222 111.111 223.639 111.414C224.055 111.706 224.285 111.936 224.326 112.103Z" fill="white"/>
<path d="M261.589 111.602C262.115 111.602 262.579 111.758 262.985 112.061C263.402 112.369 263.72 112.802 263.944 113.355C264.162 113.898 264.277 114.52 264.277 115.214C264.277 116.164 264.069 116.957 263.652 117.594C263.246 118.221 262.678 118.534 261.944 118.534C261.47 118.534 260.97 118.403 260.444 118.137C259.928 117.876 259.433 117.526 258.964 117.093C258.574 117.526 258.11 117.861 257.569 118.095C257.037 118.32 256.449 118.43 255.798 118.43C255.621 118.43 255.496 118.299 255.423 118.033C255.355 117.756 255.319 117.333 255.319 116.759C255.319 116.19 255.355 115.767 255.423 115.485C255.48 115.209 255.605 115.068 255.798 115.068C256.339 115.068 256.808 114.984 257.214 114.817C257.615 114.64 257.949 114.42 258.214 114.17C258.49 113.919 258.808 113.585 259.173 113.168C259.6 112.656 259.985 112.264 260.319 111.998C260.662 111.737 261.089 111.602 261.589 111.602ZM261.819 115.444C262.027 115.444 262.225 115.423 262.423 115.381C262.615 115.339 262.735 115.287 262.777 115.214C262.761 115.047 262.642 114.911 262.423 114.796C262.199 114.671 261.902 114.608 261.527 114.608C260.985 114.608 260.506 114.734 260.089 114.984C260.298 115.141 260.553 115.256 260.86 115.339C261.178 115.412 261.496 115.444 261.819 115.444Z" fill="white"/>
<path d="M295.886 111.602C296.412 111.602 296.876 111.758 297.282 112.061C297.699 112.369 298.016 112.802 298.24 113.355C298.459 113.898 298.574 114.52 298.574 115.214C298.574 116.164 298.365 116.957 297.949 117.594C297.542 118.221 296.975 118.534 296.24 118.534C295.766 118.534 295.266 118.403 294.74 118.137C294.225 117.876 293.73 117.526 293.261 117.093C292.871 117.526 292.407 117.861 291.865 118.095C291.334 118.32 290.746 118.43 290.094 118.43C289.917 118.43 289.792 118.299 289.719 118.033C289.652 117.756 289.615 117.333 289.615 116.759C289.615 116.19 289.652 115.767 289.719 115.485C289.777 115.209 289.902 115.068 290.094 115.068C290.636 115.068 291.105 114.984 291.511 114.817C291.912 114.64 292.246 114.42 292.511 114.17C292.787 113.919 293.105 113.585 293.469 113.168C293.897 112.656 294.282 112.264 294.615 111.998C294.959 111.737 295.386 111.602 295.886 111.602ZM296.115 115.444C296.324 115.444 296.522 115.423 296.719 115.381C296.912 115.339 297.032 115.287 297.074 115.214C297.058 115.047 296.938 114.911 296.719 114.796C296.496 114.671 296.199 114.608 295.824 114.608C295.282 114.608 294.803 114.734 294.386 114.984C294.594 115.141 294.85 115.256 295.157 115.339C295.475 115.412 295.792 115.444 296.115 115.444Z" fill="white"/>
<path d="M208.984 115.068C209.161 115.068 209.286 115.209 209.359 115.485C209.427 115.767 209.463 116.19 209.463 116.759C209.463 117.333 209.427 117.756 209.359 118.033C209.286 118.299 209.161 118.43 208.984 118.43C208.494 118.43 208.046 118.341 207.63 118.158C207.213 117.981 206.848 117.652 206.546 117.177H206.38C206.265 117.61 206.072 117.939 205.796 118.158C205.515 118.383 205.192 118.492 204.817 118.492C204.109 118.492 203.588 118.054 203.255 117.177H203.088C202.838 117.61 202.494 117.939 202.067 118.158C201.651 118.383 201.197 118.492 200.713 118.492C200.239 118.492 199.802 118.383 199.401 118.158C198.994 117.939 198.661 117.61 198.401 117.177H198.234C197.984 117.568 197.656 117.876 197.255 118.095C196.848 118.32 196.421 118.43 195.963 118.43C195.786 118.43 195.661 118.299 195.588 118.033C195.52 117.756 195.484 117.333 195.484 116.759C195.484 116.19 195.52 115.767 195.588 115.485C195.645 115.209 195.77 115.068 195.963 115.068C197.265 115.068 198.005 114.42 198.171 113.126H199.671C199.713 113.878 199.843 114.41 200.067 114.713C200.286 115.021 200.588 115.172 200.963 115.172C201.489 115.172 201.88 114.979 202.13 114.587C202.39 114.201 202.598 113.726 202.755 113.168L204.255 113.397C204.239 113.496 204.234 113.627 204.234 113.794C204.234 114.243 204.317 114.582 204.484 114.817C204.651 115.042 204.864 115.151 205.13 115.151C205.755 115.151 206.093 114.478 206.151 113.126H207.671C207.671 113.643 207.692 114.034 207.734 114.295C207.786 114.546 207.906 114.744 208.088 114.88C208.265 115.005 208.567 115.068 208.984 115.068Z" fill="white"/>
<path d="M186.693 115.068C186.885 115.068 187.01 115.209 187.068 115.485C187.135 115.767 187.172 116.19 187.172 116.759C187.172 117.333 187.135 117.756 187.068 118.033C186.995 118.299 186.87 118.43 186.693 118.43C186.151 118.43 185.62 118.32 185.109 118.095C184.609 117.876 184.203 117.568 183.901 117.177H183.734C183.12 117.678 182.469 118.012 181.776 118.179C181.094 118.346 180.385 118.43 179.651 118.43C179.474 118.43 179.349 118.299 179.276 118.033C179.208 117.756 179.172 117.333 179.172 116.759C179.172 116.19 179.208 115.767 179.276 115.485C179.333 115.209 179.458 115.068 179.651 115.068C180.578 115.068 181.349 114.937 181.964 114.671C182.589 114.394 183.068 113.893 183.401 113.168L184.901 113.397C184.885 113.496 184.88 113.627 184.88 113.794C184.88 114.295 185.01 114.64 185.276 114.817C185.536 114.984 186.01 115.068 186.693 115.068ZM185.068 120.831C185.078 121.008 184.943 121.301 184.651 121.708C184.37 122.125 184.13 122.402 183.922 122.543C183.698 122.444 183.411 122.277 183.068 122.042C182.719 121.802 182.464 121.593 182.297 121.415C182.172 121.624 182.01 121.838 181.818 122.063C181.62 122.298 181.469 122.46 181.359 122.543C181.109 122.428 180.797 122.24 180.422 121.979C180.057 121.729 179.802 121.509 179.651 121.332C179.719 121.081 179.891 120.737 180.172 120.309C180.464 119.891 180.703 119.682 180.901 119.682C181.094 119.682 181.38 119.813 181.755 120.079C182.141 120.356 182.38 120.585 182.464 120.768C182.63 120.476 182.802 120.215 182.984 119.996C183.161 119.787 183.328 119.682 183.484 119.682C183.661 119.682 183.964 119.829 184.38 120.121C184.797 120.424 185.026 120.664 185.068 120.831Z" fill="white"/>
<path d="M273.006 115.068C273.183 115.068 273.308 115.209 273.381 115.485C273.449 115.767 273.485 116.19 273.485 116.759C273.485 117.333 273.443 117.756 273.36 118.033C273.287 118.299 273.172 118.43 273.006 118.43C272.672 118.43 272.225 118.383 271.672 118.283C271.433 118.91 271.11 119.688 270.693 120.622C270.412 121.217 270.141 121.755 269.881 122.23C269.631 122.7 269.475 122.971 269.422 123.044C268.975 122.888 268.449 122.595 267.839 122.167C267.329 121.817 266.943 121.499 266.693 121.207C267.417 120.215 268.047 119.249 268.589 118.304C269.183 117.234 269.678 116.107 270.068 114.922L270.214 114.796C270.725 114.911 271.245 114.984 271.777 115.026C272.318 115.057 272.725 115.068 273.006 115.068Z" fill="white"/>
<path d="M173.118 95.5901L290.316 96.5901" stroke="white" stroke-width="14"/>
<path d="M4 107.63H74.7656" stroke="white" stroke-width="14"/>
<path d="M20.8698 15.8021H32.2292V95.3125H20.8698V15.8021ZM34.3958 58.4583V52.6562L62.1406 15.8021H76.6094L46.224 55.2656L79.7708 95.3125H64.776L34.3958 58.4583Z" stroke="black" stroke-width="8.53155"/>
<path d="M20.8643 15.7911H32.2393V95.312H20.8643V15.7911ZM34.406 58.4578V52.6453L62.156 15.7911H76.5935L46.2185 55.2703L79.781 95.312H64.7601L34.406 58.4578Z" fill="white"/>
<path d="M19.9896 60.4062V54.9323H33.401C36.6615 54.9323 39.3542 54.25 41.4844 52.8802C43.6094 51.5104 45.2031 49.7656 46.2604 47.6562C47.3125 45.526 47.8438 43.3229 47.8438 41.0469C47.8438 38.7708 47.3125 36.5781 46.2604 34.4635C45.2031 32.3385 43.6094 30.6146 41.4844 29.3021C39.3542 27.9687 36.6615 27.3021 33.401 27.3021H15.7656V95.3125H4.40625V15.6927H33.401C39.1563 15.6927 43.9531 16.9219 47.7865 19.3854C51.6198 21.8489 54.4948 25.0156 56.4219 28.8854C58.3646 32.7552 59.3386 36.8073 59.3386 41.0469C59.3386 44.7708 58.5781 48.3594 57.0625 51.8229C55.5417 55.2656 53.25 58.1823 50.1719 60.5729C47.099 62.9583 43.2969 64.5677 38.7604 65.401L63.8906 95.3125H48.9792L19.9896 60.4062Z" stroke="black" stroke-width="8.53155"/>
<path d="M19.9845 60.3953V54.937H33.4012C36.6616 54.937 39.3595 54.2599 41.4845 52.8953C43.6095 51.5203 45.1981 49.7703 46.2554 47.6453C47.3231 45.5203 47.8595 43.3276 47.8595 41.062C47.8595 38.7859 47.3231 36.5828 46.2554 34.4578C45.1981 32.3328 43.6095 30.614 41.4845 29.2911C39.3595 27.9578 36.6616 27.2911 33.4012 27.2911H15.7762V95.312H4.40118V15.687H33.4012C39.1616 15.687 43.9637 16.9265 47.797 19.3953C51.6304 21.8536 54.5106 25.0203 56.4429 28.8953C58.3699 32.7599 59.3387 36.812 59.3387 41.062C59.3387 44.7703 58.5783 48.3536 57.0679 51.812C55.5522 55.2599 53.2554 58.1765 50.172 60.562C47.0991 62.9526 43.297 64.562 38.7554 65.3953L63.8804 95.312H48.9845L19.9845 60.3953Z" fill="white"/>
</svg>
